<svg width="488" height="311" viewBox="0 0 488 311" fill="none" xmlns="http://www.w3.org/2000/svg">
<g clip-path="url(#clip0_143_316)">
<path d="M487.808 119.971V101.78C487.808 98.3107 486.43 94.9839 483.977 92.531C481.525 90.0781 478.198 88.7001 474.729 88.7001H428.563C426.845 88.7001 425.144 88.3618 423.558 87.7045C421.971 87.0472 420.529 86.0838 419.314 84.8693C418.1 83.6547 417.136 82.2128 416.479 80.626C415.822 79.0391 415.483 77.3383 415.483 75.6207V57.4295C415.483 55.7119 415.822 54.0111 416.479 52.4242C417.136 50.8373 418.1 49.3955 419.314 48.1809C420.529 46.9664 421.971 46.003 423.558 45.3457C425.144 44.6884 426.845 44.3501 428.563 44.3501H430.02C433.489 44.3501 436.816 42.9721 439.269 40.5192C441.722 38.0663 443.1 34.7395 443.1 31.2706V13.0795C443.1 9.61057 441.722 6.28376 439.269 3.83089C436.816 1.37801 433.489 0 430.02 0H88.1133C84.6444 0 81.3176 1.37801 78.8648 3.83089C76.4119 6.28376 75.0339 9.61057 75.0339 13.0795V31.2706C75.0339 34.7395 76.4119 38.0663 78.8648 40.5192C81.3176 42.9721 84.6444 44.3501 88.1133 44.3501C91.5822 44.3501 94.909 45.7281 97.3619 48.1809C99.8148 50.6338 101.193 53.9606 101.193 57.4295V75.6207C101.193 79.0896 99.8148 82.4164 97.3619 84.8693C94.909 87.3221 91.5822 88.7001 88.1133 88.7001H37.534C34.0651 88.7001 30.7383 90.0781 28.2854 92.531C25.8325 94.9839 24.4545 98.3107 24.4545 101.78V119.971C24.4545 123.44 25.8325 126.766 28.2854 129.219C30.7383 131.672 34.0651 133.05 37.534 133.05H57.3805C59.0982 133.05 60.799 133.389 62.3858 134.046C63.9727 134.703 65.4146 135.667 66.6291 136.881C67.8436 138.096 68.8071 139.537 69.4644 141.124C70.1217 142.711 70.46 144.412 70.46 146.13V164.321C70.46 166.039 70.1217 167.739 69.4644 169.326C68.8071 170.913 67.8436 172.355 66.6291 173.569C65.4146 174.784 63.9727 175.747 62.3858 176.405C60.799 177.062 59.0982 177.4 57.3805 177.4H57.3325C53.8637 177.4 50.5369 178.778 48.084 181.231C45.6311 183.684 44.2532 187.011 44.2532 190.48V208.671C44.2531 210.388 44.5915 212.089 45.2488 213.676C45.9061 215.263 46.8695 216.705 48.084 217.919C49.2986 219.134 50.7404 220.097 52.3273 220.755C53.9142 221.412 55.615 221.75 57.3326 221.75H60.204C63.6729 221.75 66.9997 223.128 69.4526 225.581C71.9054 228.034 73.2834 231.361 73.2834 234.83V253.021C73.2834 256.49 71.9054 259.817 69.4526 262.27C66.9997 264.722 63.6729 266.1 60.204 266.1H13.0795C9.61057 266.1 6.28376 267.478 3.83089 269.931C1.37801 272.384 0 275.711 0 279.18V297.371C0 300.84 1.37801 304.167 3.83089 306.62C6.28376 309.073 9.61057 310.451 13.0795 310.451H437.042C440.511 310.451 443.838 309.073 446.291 306.62C448.744 304.167 450.122 300.84 450.122 297.371V279.18C450.122 275.711 448.744 272.384 446.291 269.931C443.838 267.478 440.511 266.1 437.042 266.1H425.702C422.233 266.1 418.906 264.722 416.453 262.27C414 259.817 412.622 256.49 412.622 253.021V234.83C412.622 231.361 414 228.034 416.453 225.581C418.906 223.128 422.233 221.75 425.702 221.75H452.442C454.159 221.75 455.86 221.412 457.447 220.755C459.034 220.097 460.476 219.134 461.69 217.919C462.905 216.705 463.868 215.263 464.526 213.676C465.183 212.089 465.521 210.388 465.521 208.671V190.48C465.521 187.011 464.143 183.684 461.69 181.231C459.237 178.778 455.911 177.4 452.442 177.4H444.33C442.613 177.4 440.912 177.062 439.325 176.405C437.738 175.747 436.296 174.784 435.082 173.569C433.867 172.355 432.904 170.913 432.246 169.326C431.589 167.739 431.251 166.039 431.251 164.321V146.13C431.251 144.412 431.589 142.711 432.246 141.124C432.904 139.537 433.867 138.096 435.082 136.881C436.296 135.667 437.738 134.703 439.325 134.046C440.912 133.389 442.613 133.05 444.33 133.05H474.729C478.198 133.05 481.525 131.672 483.977 129.219C486.43 126.766 487.808 123.44 487.808 119.971Z" fill="#DBE8EC"/>
<path d="M296.401 131.001H136.561V276.569H296.401V131.001Z" fill="#409CB5"/>
<path d="M381.361 131.001H296.401V276.569H381.361V131.001Z" fill="#3086A3"/>
<path d="M381.361 131.362H296.401L325.502 91.6328C325.781 91.2524 326.145 90.9431 326.565 90.7299C326.986 90.5166 327.45 90.4055 327.922 90.4055H405.442C405.996 90.4055 406.54 90.5593 407.012 90.8497C407.485 91.1401 407.867 91.5558 408.118 92.0507C408.369 92.5457 408.477 93.1004 408.432 93.6534C408.387 94.2064 408.189 94.736 407.861 95.1835L381.361 131.362Z" fill="#25788E"/>
<path d="M136.956 131.362H221.916L192.815 91.6328C192.537 91.2524 192.172 90.9431 191.752 90.7299C191.332 90.5166 190.867 90.4055 190.396 90.4055H112.876C112.321 90.4055 111.778 90.5593 111.305 90.8497C110.833 91.1401 110.45 91.5558 110.2 92.0507C109.949 92.5457 109.84 93.1004 109.886 93.6534C109.931 94.2064 110.128 94.736 110.456 95.1835L136.956 131.362Z" fill="#3086A3"/>
<path d="M429.293 184.409L381.361 131.362V189.373H427.022C427.596 189.373 428.159 189.207 428.642 188.897C429.125 188.586 429.51 188.143 429.749 187.62C429.988 187.097 430.072 186.517 429.992 185.948C429.911 185.378 429.668 184.844 429.293 184.409Z" fill="#25788E"/>
<path d="M276.747 52.9266H165.893V131.362H276.747V52.9266Z" fill="#EE781D"/>
<path d="M218.08 136.204H187.582C186.993 136.204 186.415 136.049 185.905 135.754C185.395 135.459 184.971 135.036 184.677 134.525C184.383 134.015 184.228 133.436 184.228 132.847C184.228 132.258 184.383 131.679 184.677 131.168L199.926 104.733L215.175 78.2977C215.47 77.7874 215.893 77.3636 216.403 77.069C216.913 76.7744 217.491 76.6193 218.08 76.6193C218.668 76.6193 219.247 76.7744 219.757 77.069C220.267 77.3636 220.69 77.7874 220.984 78.2977L236.233 104.733L251.482 131.168C251.777 131.679 251.932 132.258 251.932 132.847C251.932 133.436 251.777 134.015 251.482 134.525C251.188 135.036 250.765 135.459 250.255 135.754C249.745 136.049 249.166 136.204 248.578 136.204H218.08Z" fill="#DBE8EC"/>
<path d="M219.758 93.1495C219.758 92.222 219.006 91.4702 218.08 91.4702C217.153 91.4702 216.402 92.222 216.402 93.1495V118.184C216.402 119.111 217.153 119.863 218.08 119.863C219.006 119.863 219.758 119.111 219.758 118.184V93.1495Z" fill="#409CB5"/>
<path d="M222.074 126.831C222.293 124.623 220.681 122.656 218.475 122.437C216.269 122.218 214.304 123.831 214.085 126.039C213.867 128.247 215.478 130.214 217.684 130.433C219.89 130.652 221.856 129.039 222.074 126.831Z" fill="#409CB5"/>
<path d="M244.667 189.373H92.7512C92.1767 189.373 91.6142 189.207 91.1307 188.897C90.6472 188.586 90.2629 188.143 90.0237 187.62C89.7844 187.097 89.7002 186.517 89.7811 185.948C89.8619 185.378 90.1044 184.844 90.4797 184.409L136.201 131.362H296.041L246.939 188.331C246.657 188.658 246.308 188.92 245.916 189.1C245.524 189.28 245.098 189.373 244.667 189.373Z" fill="#47ACC4"/>
<path d="M393.287 237.632C397.077 237.632 397.077 239.634 400.866 239.634C404.655 239.634 404.655 237.632 408.443 237.632C412.234 237.632 412.234 239.634 416.025 239.634C419.817 239.634 419.817 237.632 423.608 237.632" stroke="#B9D4DB" stroke-width="3" stroke-miterlimit="10" stroke-linecap="round"/>
<path d="M393.287 246.379C397.077 246.379 397.077 248.381 400.866 248.381C404.655 248.381 404.655 246.379 408.443 246.379C412.234 246.379 412.234 248.381 416.025 248.381C419.817 248.381 419.817 246.379 423.608 246.379" stroke="#B9D4DB" stroke-width="3" stroke-miterlimit="10" stroke-linecap="round"/>
<path d="M393.287 255.126C397.077 255.126 397.077 257.128 400.866 257.128C404.655 257.128 404.655 255.126 408.443 255.126C412.234 255.126 412.234 257.128 416.025 257.128C419.817 257.128 419.817 255.126 423.608 255.126" stroke="#B9D4DB" stroke-width="3" stroke-miterlimit="10" stroke-linecap="round"/>
<path d="M30.1835 191.374C33.9731 191.374 33.9731 193.376 37.7628 193.376C41.5513 193.376 41.5513 191.374 45.3398 191.374C49.1308 191.374 49.1308 193.376 52.9219 193.376C56.713 193.376 56.713 191.374 60.504 191.374" stroke="#B9D4DB" stroke-width="3" stroke-miterlimit="10" stroke-linecap="round"/>
<path d="M30.1835 200.121C33.9731 200.121 33.9731 202.123 37.7628 202.123C41.5513 202.123 41.5513 200.121 45.3398 200.121C49.1308 200.121 49.1308 202.123 52.9219 202.123C56.713 202.123 56.713 200.121 60.504 200.121" stroke="#B9D4DB" stroke-width="3" stroke-miterlimit="10" stroke-linecap="round"/>
<path d="M30.1835 208.868C33.9731 208.868 33.9731 210.87 37.7628 210.87C41.5513 210.87 41.5513 208.868 45.3398 208.868C49.1308 208.868 49.1308 210.87 52.9219 210.87C56.713 210.87 56.713 208.868 60.504 208.868" stroke="#B9D4DB" stroke-width="3" stroke-miterlimit="10" stroke-linecap="round"/>
<path d="M198.905 19.6493C202.695 19.6493 202.695 21.6511 206.485 21.6511C210.273 21.6511 210.273 19.6493 214.062 19.6493C217.853 19.6493 217.853 21.6511 221.644 21.6511C225.435 21.6511 225.435 19.6493 229.226 19.6493" stroke="#B9D4DB" stroke-width="3" stroke-miterlimit="10" stroke-linecap="round"/>
<path d="M198.905 28.3961C202.695 28.3961 202.695 30.3979 206.485 30.3979C210.273 30.3979 210.273 28.3961 214.062 28.3961C217.853 28.3961 217.853 30.3979 221.644 30.3979C225.435 30.3979 225.435 28.3961 229.226 28.3961" stroke="#B9D4DB" stroke-width="3" stroke-miterlimit="10" stroke-linecap="round"/>
<path d="M198.905 37.1431C202.695 37.1431 202.695 39.1448 206.485 39.1448C210.273 39.1448 210.273 37.1431 214.062 37.1431C217.853 37.1431 217.853 39.1448 221.644 39.1448C225.435 39.1448 225.435 37.1431 229.226 37.1431" stroke="#B9D4DB" stroke-width="3" stroke-miterlimit="10" stroke-linecap="round"/>
<path d="M102.705 303.526C109.863 303.526 115.665 297.718 115.665 290.555C115.665 283.391 109.863 277.583 102.705 277.583C95.5478 277.583 89.7454 283.391 89.7454 290.555C89.7454 297.718 95.5478 303.526 102.705 303.526Z" fill="#B9D4DB"/>
<path d="M112.109 263.064C115.821 263.064 118.829 260.053 118.829 256.338C118.829 252.624 115.821 249.613 112.109 249.613C108.398 249.613 105.389 252.624 105.389 256.338C105.389 260.053 108.398 263.064 112.109 263.064Z" fill="#B9D4DB"/>
<path d="M138.723 301.604C144.024 301.604 148.323 297.303 148.323 291.996C148.323 286.689 144.024 282.388 138.723 282.388C133.421 282.388 129.123 286.689 129.123 291.996C129.123 297.303 133.421 301.604 138.723 301.604Z" fill="#B9D4DB"/>
<path d="M89.9694 127.322C98.4856 127.322 105.389 120.412 105.389 111.888C105.389 103.365 98.4856 96.455 89.9694 96.455C81.4532 96.455 74.5495 103.365 74.5495 111.888C74.5495 120.412 81.4532 127.322 89.9694 127.322Z" fill="#B9D4DB"/>
<path d="M60.5041 108.935C64.94 108.935 68.536 105.336 68.536 100.896C68.536 96.4559 64.94 92.8567 60.5041 92.8567C56.0681 92.8567 52.4721 96.4559 52.4721 100.896C52.4721 105.336 56.0681 108.935 60.5041 108.935Z" fill="#B9D4DB"/>
<path d="M67.8815 78.2059C70.4403 78.2059 72.5146 76.1298 72.5146 73.5688C72.5146 71.0078 70.4403 68.9316 67.8815 68.9316C65.3228 68.9316 63.2485 71.0078 63.2485 73.5688C63.2485 76.1298 65.3228 78.2059 67.8815 78.2059Z" fill="#B9D4DB"/>
<path d="M93.5289 87.9659C99.6629 87.9659 104.635 82.989 104.635 76.8497C104.635 70.7103 99.6629 65.7334 93.5289 65.7334C87.395 65.7334 82.4224 70.7103 82.4224 76.8497C82.4224 82.989 87.395 87.9659 93.5289 87.9659Z" fill="#B9D4DB"/>
<path d="M357.988 52.4716C366.504 52.4716 373.407 45.5618 373.407 37.0382C373.407 28.5145 366.504 21.6047 357.988 21.6047C349.471 21.6047 342.568 28.5145 342.568 37.0382C342.568 45.5618 349.471 52.4716 357.988 52.4716Z" fill="#B9D4DB"/>
<path d="M382.523 25.3917C386.959 25.3917 390.555 21.7925 390.555 17.3526C390.555 12.9128 386.959 9.3136 382.523 9.3136C378.087 9.3136 374.491 12.9128 374.491 17.3526C374.491 21.7925 378.087 25.3917 382.523 25.3917Z" fill="#B9D4DB"/>
<path d="M413.205 68.4241C417.045 68.4241 420.157 65.309 420.157 61.4663C420.157 57.6236 417.045 54.5085 413.205 54.5085C409.366 54.5085 406.254 57.6236 406.254 61.4663C406.254 65.309 409.366 68.4241 413.205 68.4241Z" fill="#B9D4DB"/>
<path d="M402.183 42.3391C404.742 42.3391 406.816 40.2629 406.816 37.7019C406.816 35.1409 404.742 33.0648 402.183 33.0648C399.624 33.0648 397.55 35.1409 397.55 37.7019C397.55 40.2629 399.624 42.3391 402.183 42.3391Z" fill="#B9D4DB"/>
<path d="M386.22 69.1763C392.354 69.1763 397.327 64.1994 397.327 58.06C397.327 51.9207 392.354 46.9437 386.22 46.9437C380.086 46.9437 375.114 51.9207 375.114 58.06C375.114 64.1994 380.086 69.1763 386.22 69.1763Z" fill="#B9D4DB"/>
</g>
<defs>
<clipPath id="clip0_143_316">
<rect width="488" height="311" fill="white"/>
</clipPath>
</defs>
</svg>
