<svg width="24" height="24" viewBox="0 0 24 24" fill="none" xmlns="http://www.w3.org/2000/svg">
<path d="M8 2V5M16 2V5M3.5 9.09H20.5M14 19C14 21.2091 15.7909 23 18 23C20.2091 23 22 21.2091 22 19C22 16.7909 20.2091 15 18 15M14 19C14 16.7909 15.7909 15 18 15M14 19C14 19.75 14.21 20.46 14.58 21.06C14.79 21.42 15.06 21.74 15.37 22H8C4.5 22 3 20 3 17V8.5C3 5.5 4.5 3.5 8 3.5H16C19.5 3.5 21 5.5 21 8.5V16.36C20.27 15.53 19.2 15 18 15M19.07 20.11L16.95 18M19.05 18.02L16.93 20.14M11.9955 13.7H12.0045M8.29431 13.7H8.30329M8.29431 16.7H8.30329" stroke="#292D32" stroke-width="1.5" stroke-linecap="round" stroke-linejoin="round"/>
</svg>
