<svg width="24" height="24" viewBox="0 0 24 24" fill="none" xmlns="http://www.w3.org/2000/svg">
<path d="M8 2V5M16 2V5M22 22L21 21M3.5 9.09H20.5M13.37 22H8C4.5 22 3 20 3 17V8.5C3 5.5 4.5 3.5 8 3.5H16C19.5 3.5 21 5.5 21 8.5V13M11.9955 13.7H12.0045M8.29431 13.7H8.30329M8.29431 16.7H8.30329M21.4 18.2C21.4 19.9673 19.9673 21.4 18.2 21.4C16.4327 21.4 15 19.9673 15 18.2C15 16.4327 16.4327 15 18.2 15C19.9673 15 21.4 16.4327 21.4 18.2Z" stroke="#292D32" stroke-width="1.5" stroke-linecap="round" stroke-linejoin="round"/>
</svg>
