<svg width="32" height="32" viewBox="0 0 32 32" fill="none" xmlns="http://www.w3.org/2000/svg">
<path opacity="0.15" d="M17.4 29.5333C22.2601 29.5333 26.2 29.0259 26.2 28.4C26.2 27.7741 22.2601 27.2667 17.4 27.2667C12.5399 27.2667 8.59998 27.7741 8.59998 28.4C8.59998 29.0259 12.5399 29.5333 17.4 29.5333Z" fill="#45413C"/>
<path d="M30.1334 13.4666C30.1334 13.4666 32.4668 9.66663 29.4001 9.66663H29.2001L29.3334 7.19996C29.4001 6.3333 28.6001 5.7333 27.8668 5.9333C25.6668 6.59996 23.7334 8.1333 22.4001 10.1333L21.5334 11.4666C20.5334 13 18.4668 12.9333 17.6001 11.3333L15.8668 8.3333C14.8001 6.5333 12.9334 5.39996 10.9334 5.39996H10.8001C7.20008 5.39996 4.33342 8.59996 4.46675 12.4666L4.60008 16.4666C4.80008 22.6666 9.53342 27.6 15.2668 27.6H18.2001C22.8668 27.6 26.8668 24.4 28.3334 19.8666L28.4001 19.9333C28.4001 19.9333 30.2001 19.3333 30.8668 17.2666C31.6001 15.0666 30.1334 13.4666 30.1334 13.4666Z" fill="#F0F0F0"/>
<path d="M9.26676 8.1333H9.46676C11.9334 8.1333 14.2001 9.26663 15.4668 11.0666L17.6001 14.0666C18.6668 15.6 21.2001 15.6666 22.4001 14.2L23.4668 12.8666C24.9334 11.0666 26.9334 9.66663 29.2668 8.9333L29.3334 7.19996C29.4001 6.3333 28.6001 5.7333 27.8668 5.9333C25.6668 6.59996 23.7334 8.1333 22.4001 10.1333L21.5334 11.4666C20.5334 13 18.4668 12.9333 17.6001 11.3333L15.8668 8.3333C14.8001 6.5333 12.9334 5.39996 10.9334 5.39996H10.8001C8.26676 5.39996 6.13342 6.99996 5.13342 9.19996C6.33342 8.5333 7.73342 8.1333 9.26676 8.1333Z" fill="white"/>
<path d="M30.1334 13.4666C30.1334 13.4666 32.4668 9.66663 29.4001 9.66663H29.2001L29.3334 7.19996C29.4001 6.3333 28.6001 5.7333 27.8668 5.9333C25.6668 6.59996 23.7334 8.1333 22.4001 10.1333L21.5334 11.4666C20.5334 13 18.4668 12.9333 17.6001 11.3333L15.8668 8.3333C14.8001 6.5333 12.9334 5.39996 10.9334 5.39996H10.8001C7.20008 5.39996 4.33342 8.59996 4.46675 12.4666L4.60008 16.4666C4.80008 22.6666 9.53342 27.6 15.2668 27.6H18.2001C22.8668 27.6 26.8668 24.4 28.3334 19.8666L28.4001 19.9333C28.4001 19.9333 30.2001 19.3333 30.8668 17.2666C31.6001 15.0666 30.1334 13.4666 30.1334 13.4666Z" stroke="#45413C" stroke-miterlimit="10" stroke-linecap="round" stroke-linejoin="round"/>
<path d="M23.7334 13.8C23.7334 13.8 26.4001 9.53329 29.4001 9.59996C32.4001 9.66662 30.1334 13.4 30.1334 13.4C30.1334 13.4 31.5334 15 30.8667 17.2C30.2001 19.3333 28.4001 19.8666 28.4001 19.8666" stroke="#45413C" stroke-miterlimit="10" stroke-linecap="round" stroke-linejoin="round"/>
<path d="M3.53333 13.2666C3.53333 13.2666 1.86667 18.4666 5.06667 18.2666C7.26667 18.1333 7.33333 16.2 7.2 15C7.13333 14.5333 7.53333 14.1333 8 14.1333C9.2 14.1333 11.1333 13.8666 12 11.7333C12.9333 9.33331 12.0667 8.13331 11.5333 7.73331C11.3333 7.59998 11.2 7.33331 11.2667 7.06664C11.3333 6.33331 11.8667 5.26664 13.5333 5.99998C14.8 5.06664 15 3.26664 13.5333 2.53331C12.5333 2.06664 11.8 2.39998 11.3333 2.73331C11 2.99998 10.5333 2.99998 10.2 2.73331C9.66667 2.39998 8.73333 1.99998 7.73333 2.86664C6.13333 4.33331 8.13333 5.99998 8.13333 5.99998C8.13333 5.99998 6.06667 5.99998 4.66667 8.66664C3.26667 11.3333 3.53333 13.2666 3.53333 13.2666Z" fill="#FF866E"/>
<path d="M12.2667 9.1333C12.2 8.86663 12.1333 8.59996 12 8.39996V8.46663C12 8.79996 12.1333 8.99996 12.2667 9.1333Z" fill="#FFA694"/>
<path d="M7.99998 5.86663C7.93331 5.39996 7.99998 4.86663 8.59998 4.39996C9.59998 3.53329 10.5333 3.86663 11.0666 4.26663C11.4 4.46663 11.8666 4.46663 12.2 4.26663C12.6666 3.93329 13.4 3.59996 14.4 4.06663C14.4666 4.13329 14.5333 4.13329 14.6 4.19996C14.6 3.59996 14.2666 2.93329 13.5333 2.59996C12.5333 2.13329 11.8 2.46663 11.3333 2.79996C11 3.06663 10.5333 3.06663 10.2 2.79996C9.66664 2.46663 8.73331 2.06663 7.73331 2.93329C6.39998 4.13329 7.59998 5.46663 7.99998 5.86663Z" fill="#FFA694"/>
<path d="M4.33334 14.7333C4.33334 14.7333 4.06667 12.7999 5.46667 10.1333C6.86667 7.46661 8.93334 7.46661 8.93334 7.46661C8.93334 7.46661 8.20001 6.79994 8.00001 5.99994C7.60001 6.06661 5.86667 6.33327 4.66667 8.66661C3.26667 11.3333 3.53334 13.2666 3.53334 13.2666C3.53334 13.2666 2.26667 17.1333 4.00001 18.0666C3.73334 16.5999 4.33334 14.7333 4.33334 14.7333Z" fill="#FFA694"/>
<path d="M3.53333 13.2666C3.53333 13.2666 1.86667 18.4666 5.06667 18.2666C7.26667 18.1333 7.33333 16.2 7.2 15C7.13333 14.5333 7.53333 14.1333 8 14.1333C9.2 14.1333 11.1333 13.8666 12 11.7333C12.9333 9.33331 12.0667 8.13331 11.5333 7.73331C11.3333 7.59998 11.2 7.33331 11.2667 7.06664C11.3333 6.33331 11.8667 5.26664 13.5333 5.99998C14.8 5.06664 15 3.26664 13.5333 2.53331C12.5333 2.06664 11.8 2.39998 11.3333 2.73331C11 2.99998 10.5333 2.99998 10.2 2.73331C9.66667 2.39998 8.73333 1.99998 7.73333 2.86664C6.13333 4.33331 8.13333 5.99998 8.13333 5.99998C8.13333 5.99998 6.06667 5.99998 4.66667 8.66664C3.26667 11.3333 3.53333 13.2666 3.53333 13.2666Z" stroke="#45413C" stroke-miterlimit="10" stroke-linecap="round" stroke-linejoin="round"/>
<path d="M4.0667 10C4.0667 10 1.4667 11 1.00003 12.2667C0.533364 13.5333 3.6667 13.8 3.6667 13.8C3.6667 13.8 4.80003 13.8667 5.20003 13.0667C5.60003 12.2 4.0667 10 4.0667 10Z" fill="#FFE500"/>
<path d="M4.80023 11.4C4.80023 11.4 4.93357 11.5333 5.0669 11.8C4.73357 10.9333 4.0669 10 4.0669 10C4.0669 10 1.4669 11 1.00023 12.2667C0.800232 12.8 1.2669 13.2 1.8669 13.4C2.53357 12.2667 4.80023 11.4 4.80023 11.4Z" fill="#FFF48C"/>
<path d="M4.0667 10C4.0667 10 1.4667 11 1.00003 12.2667C0.533364 13.5333 3.6667 13.8 3.6667 13.8C3.6667 13.8 4.80003 13.8667 5.20003 13.0667C5.60003 12.2 4.0667 10 4.0667 10Z" stroke="#45413C" stroke-miterlimit="10" stroke-linecap="round" stroke-linejoin="round"/>
<path d="M12.4 20.3333C12.4 20.3333 12.6 24.8666 16.6667 24.5333C20.7334 24.2 20.6 20.7333 20.6 20.7333C20.6 20.7333 22.5334 19.4666 22.4 17.6666C22.2 15.7333 21.0667 15.2666 18.8667 15.7333" stroke="#45413C" stroke-miterlimit="10" stroke-linecap="round" stroke-linejoin="round"/>
<path d="M8.33331 10.2C8.73832 10.2 9.06664 9.87168 9.06664 9.46667C9.06664 9.06166 8.73832 8.73334 8.33331 8.73334C7.9283 8.73334 7.59998 9.06166 7.59998 9.46667C7.59998 9.87168 7.9283 10.2 8.33331 10.2Z" fill="#45413C"/>
<path d="M9.86676 12.1333C10.2718 12.1333 10.6001 11.8348 10.6001 11.4667C10.6001 11.0985 10.2718 10.8 9.86676 10.8C9.46175 10.8 9.13342 11.0985 9.13342 11.4667C9.13342 11.8348 9.46175 12.1333 9.86676 12.1333Z" fill="#FFCABF"/>
</svg>
