<svg width="30" height="30" viewBox="0 0 30 30" fill="none" xmlns="http://www.w3.org/2000/svg">
<g clip-path="url(#clip0_129_314)">
<path d="M15 29.5312C23.0254 29.5312 29.5312 23.0254 29.5312 15C29.5312 6.97461 23.0254 0.46875 15 0.46875C6.97461 0.46875 0.46875 6.97461 0.46875 15C0.46875 23.0254 6.97461 29.5312 15 29.5312Z" fill="#FDD402"/>
<path d="M26.7188 15C26.7188 15.4031 26.7 15.7969 26.6625 16.1906C26.4549 18.1832 25.7424 20.09 24.5924 21.7304C23.4425 23.3709 21.893 24.6909 20.0906 25.5656C18.6452 26.2598 17.0713 26.646 15.4688 26.7C15.313 26.7158 15.1565 26.7221 15 26.7187C14.8435 26.7221 14.687 26.7158 14.5313 26.7C11.7466 26.602 9.09055 25.5036 7.05001 23.6062C6.82501 23.4 6.60001 23.175 6.39376 22.95C4.49637 20.9094 3.398 18.2534 3.30001 15.4687C3.28421 15.313 3.27794 15.1565 3.28126 15C3.27794 14.8435 3.2842 14.687 3.30001 14.5312C3.39803 11.7466 4.49639 9.09055 6.39376 7.04999L7.05001 6.39374C9.09057 4.49638 11.7466 3.39802 14.5313 3.29999C14.687 3.28422 14.8435 3.27796 15 3.28124C15.1565 3.27796 15.313 3.28422 15.4688 3.29999C18.2534 3.39802 20.9094 4.49638 22.95 6.39374C23.175 6.59999 23.4 6.82499 23.6063 7.04999C25.6097 9.21236 26.7215 12.0522 26.7188 15Z" fill="white"/>
<path d="M15 0.46875C12.126 0.46875 9.31653 1.32099 6.92688 2.91771C4.53722 4.51442 2.67472 6.78389 1.57488 9.43913C0.475046 12.0944 0.187279 15.0161 0.74797 17.8349C1.30866 20.6537 2.69263 23.2429 4.72486 25.2751C6.75709 27.3074 9.34631 28.6913 12.1651 29.252C14.9839 29.8127 17.9056 29.525 20.5609 28.4251C23.2161 27.3253 25.4856 25.4628 27.0823 23.0731C28.679 20.6835 29.5313 17.874 29.5313 15C29.5311 11.1461 28.0001 7.45011 25.275 4.725C22.5499 1.99989 18.8539 0.468882 15 0.46875ZM20.0906 25.5656C18.6452 26.2598 17.0713 26.646 15.4688 26.7C15.313 26.7158 15.1565 26.7221 15 26.7188C14.8435 26.7221 14.687 26.7158 14.5313 26.7C11.7466 26.602 9.09055 25.5036 7.05001 23.6063C6.82501 23.4 6.60001 23.175 6.39376 22.95C4.49637 20.9095 3.398 18.2534 3.30001 15.4688C3.2842 15.313 3.27794 15.1565 3.28126 15C3.27794 14.8435 3.2842 14.687 3.30001 14.5312C3.39803 11.7466 4.49639 9.09056 6.39376 7.05L7.05001 6.39375C9.09057 4.49639 11.7466 3.39803 14.5313 3.3C14.687 3.28423 14.8435 3.27796 15 3.28125C15.1565 3.27796 15.313 3.28423 15.4688 3.3C18.2534 3.39803 20.9094 4.49639 22.95 6.39375C23.175 6.6 23.4 6.825 23.6063 7.05C25.6097 9.21236 26.7215 12.0522 26.7188 15C26.7188 15.4031 26.7 15.7969 26.6625 16.1906C26.4549 18.1832 25.7424 20.09 24.5924 21.7305C23.4425 23.3709 21.893 24.6909 20.0906 25.5656Z" fill="#8B8891"/>
<path d="M29.5312 21.0938C29.5331 20.1816 29.3132 19.2826 28.8903 18.4743C28.4675 17.666 27.8545 16.9727 27.1041 16.454C26.3537 15.9354 25.4884 15.607 24.5829 15.4971C23.6773 15.3872 22.7586 15.4992 21.906 15.8233C21.0533 16.1475 20.2922 16.6741 19.6884 17.3578C19.0845 18.0415 18.656 18.8618 18.4397 19.748C18.2233 20.6342 18.2257 21.5597 18.4467 22.4447C18.6676 23.3297 19.1004 24.1478 19.7078 24.8284C20.0006 25.1632 20.1602 25.5939 20.1562 26.0387V27.6563C20.1562 28.1536 20.3538 28.6305 20.7054 28.9821C21.057 29.3337 21.534 29.5313 22.0312 29.5313H25.7812C26.2785 29.5313 26.7554 29.3337 27.1071 28.9821C27.4587 28.6305 27.6562 28.1536 27.6562 27.6563V26.0387C27.6525 25.5934 27.8125 25.1622 28.1058 24.8271C29.0248 23.8008 29.5324 22.4713 29.5312 21.0938Z" fill="#E5303E"/>
<path d="M21.5625 22.5C22.3392 22.5 22.9688 21.8704 22.9688 21.0938C22.9688 20.3171 22.3392 19.6875 21.5625 19.6875C20.7858 19.6875 20.1562 20.3171 20.1562 21.0938C20.1562 21.8704 20.7858 22.5 21.5625 22.5Z" fill="#3C3B41"/>
<path d="M26.25 22.5C27.0267 22.5 27.6562 21.8704 27.6562 21.0938C27.6562 20.3171 27.0267 19.6875 26.25 19.6875C25.4733 19.6875 24.8438 20.3171 24.8438 21.0938C24.8438 21.8704 25.4733 22.5 26.25 22.5Z" fill="#3C3B41"/>
<path d="M15 15.9375C15.5178 15.9375 15.9375 15.5178 15.9375 15C15.9375 14.4822 15.5178 14.0625 15 14.0625C14.4822 14.0625 14.0625 14.4822 14.0625 15C14.0625 15.5178 14.4822 15.9375 15 15.9375Z" fill="#8B8891"/>
<path d="M16.3199 15.4687H19.2188C19.3431 15.4687 19.4623 15.4193 19.5502 15.3314C19.6382 15.2435 19.6875 15.1243 19.6875 15C19.6875 14.8757 19.6382 14.7564 19.5502 14.6685C19.4623 14.5806 19.3431 14.5312 19.2188 14.5312H16.3199C16.25 14.3351 16.1374 14.157 15.9902 14.0098C15.843 13.8626 15.6649 13.75 15.4688 13.6801V7.96872C15.4688 7.8444 15.4194 7.72517 15.3315 7.63727C15.2436 7.54936 15.1244 7.49997 15 7.49997C14.8757 7.49997 14.7565 7.54936 14.6686 7.63727C14.5807 7.72517 14.5313 7.8444 14.5313 7.96872V13.6801C14.3075 13.7587 14.1074 13.8928 13.9496 14.0699C13.7917 14.2469 13.6813 14.461 13.6287 14.6923C13.5761 14.9236 13.583 15.1644 13.6488 15.3923C13.7145 15.6202 13.837 15.8276 14.0047 15.9953C14.1724 16.1631 14.3799 16.2855 14.6077 16.3512C14.8356 16.417 15.0764 16.4239 15.3077 16.3713C15.539 16.3187 15.7531 16.2083 15.9301 16.0505C16.1072 15.8926 16.2413 15.6925 16.3199 15.4687ZM15 15.4687C14.9073 15.4687 14.8167 15.4412 14.7396 15.3897C14.6625 15.3382 14.6024 15.265 14.567 15.1794C14.5315 15.0937 14.5222 14.9995 14.5403 14.9085C14.5584 14.8176 14.603 14.7341 14.6686 14.6685C14.7341 14.603 14.8177 14.5583 14.9086 14.5402C14.9995 14.5221 15.0938 14.5314 15.1794 14.5669C15.2651 14.6024 15.3383 14.6625 15.3898 14.7395C15.4413 14.8166 15.4688 14.9073 15.4688 15C15.4685 15.1242 15.4191 15.2433 15.3312 15.3312C15.2434 15.419 15.1243 15.4685 15 15.4687ZM30 15C30.007 11.7986 28.9918 8.67857 27.1022 6.0943C25.2126 3.51003 22.5474 1.59649 19.4946 0.632334C16.4419 -0.331817 13.161 -0.296218 10.1299 0.733948C7.09879 1.76411 4.47569 3.73504 2.64264 6.3597C0.809578 8.98436 -0.137707 12.1257 -0.0612634 15.3262C0.0151803 18.5266 1.11136 21.6191 3.06764 24.1533C5.02391 26.6874 7.73811 28.5309 10.815 29.4152C13.8918 30.2994 17.1706 30.1784 20.1739 29.0696C20.3906 29.3576 20.671 29.5915 20.9933 29.7529C21.3156 29.9143 21.6709 29.9989 22.0313 30H25.7813C26.4027 29.9994 26.9985 29.7523 27.4379 29.3129C27.8773 28.8735 28.1245 28.2776 28.125 27.6562V26.0385C28.121 25.7084 28.2387 25.3883 28.4555 25.1394C29.2215 24.285 29.7285 23.2302 29.9175 22.0984C30.1064 20.9666 29.9695 19.8044 29.5228 18.7474C29.8387 17.5233 29.9991 16.2642 30 15ZM27.7561 24.516C27.3858 24.9363 27.1834 25.4783 27.1875 26.0385V27.6562C27.1871 28.0291 27.0388 28.3865 26.7752 28.6501C26.5116 28.9138 26.1541 29.0621 25.7813 29.0625H22.0313C21.6585 29.0621 21.301 28.9138 21.0374 28.6501C20.7737 28.3865 20.6254 28.0291 20.625 27.6562V26.0385C20.6294 25.4785 20.4273 24.9365 20.0574 24.516C19.4582 23.845 19.0451 23.0289 18.8593 22.1487C18.6734 21.2685 18.7213 20.355 18.9982 19.4991C19.275 18.6431 19.7712 17.8746 20.4373 17.27C21.1034 16.6654 21.9162 16.2457 22.7948 16.0528C23.1562 15.9775 23.5243 15.9395 23.8935 15.9393C24.8886 15.9354 25.8634 16.22 26.7002 16.7586C27.537 17.2972 28.1997 18.0666 28.6084 18.974C29.017 19.8813 29.154 20.8876 29.0027 21.8711C28.8515 22.8547 28.4185 23.7733 27.7561 24.516ZM15 24.375C14.9385 24.3749 14.8775 24.387 14.8206 24.4106C14.7637 24.4341 14.712 24.4687 14.6685 24.5122C14.625 24.5557 14.5904 24.6074 14.5669 24.6643C14.5434 24.7212 14.5313 24.7822 14.5313 24.8437V26.2262C11.877 26.118 9.34771 25.069 7.3959 23.267L8.37071 22.2921C8.45714 22.204 8.50527 22.0852 8.50465 21.9617C8.50403 21.8382 8.45469 21.72 8.36738 21.6327C8.28006 21.5453 8.16181 21.496 8.03832 21.4954C7.91483 21.4948 7.79609 21.5429 7.70789 21.6293L6.73305 22.6041C4.93096 20.6523 3.882 18.123 3.77379 15.4687H5.15629C5.28061 15.4687 5.39984 15.4193 5.48775 15.3314C5.57565 15.2435 5.62504 15.1243 5.62504 15C5.62504 14.8757 5.57565 14.7564 5.48775 14.6685C5.39984 14.5806 5.28061 14.5312 5.15629 14.5312H3.77379C3.882 11.8769 4.93096 9.34765 6.73305 7.39583L7.70786 8.37064C7.79606 8.45707 7.9148 8.5052 8.03829 8.50458C8.16178 8.50396 8.28003 8.45463 8.36735 8.36731C8.45467 8.27999 8.504 8.16174 8.50462 8.03825C8.50524 7.91476 8.45711 7.79602 8.37068 7.70783L7.3959 6.73298C9.34772 4.93089 11.877 3.88193 14.5313 3.77372V5.15622C14.5313 5.28054 14.5807 5.39977 14.6686 5.48768C14.7565 5.57559 14.8757 5.62497 15 5.62497C15.1244 5.62497 15.2436 5.57559 15.3315 5.48768C15.4194 5.39977 15.4688 5.28054 15.4688 5.15622V3.77372C18.1231 3.88193 20.6524 4.9309 22.6042 6.73299L21.6294 7.7078C21.5851 7.75116 21.5499 7.80286 21.5258 7.85991C21.5016 7.91696 21.489 7.97824 21.4887 8.04018C21.4884 8.10213 21.5004 8.16353 21.524 8.22082C21.5475 8.27812 21.5822 8.33017 21.626 8.37397C21.6698 8.41778 21.7219 8.45247 21.7792 8.47603C21.8365 8.49959 21.8979 8.51156 21.9598 8.51125C22.0217 8.51093 22.083 8.49834 22.1401 8.4742C22.1971 8.45006 22.2488 8.41485 22.2922 8.37061L23.267 7.39581C25.1836 9.46431 26.249 12.18 26.25 15C26.25 15.1584 26.2331 15.3122 26.2267 15.4688C25.0801 14.9968 23.8179 14.8806 22.6044 15.1355C21.5646 15.3618 20.6023 15.8567 19.8134 16.5708C19.0244 17.285 18.4365 18.1934 18.108 19.2056C17.7796 20.2178 17.7221 21.2984 17.9415 22.3397C18.1608 23.381 18.6492 24.3466 19.358 25.1404C19.3972 25.1955 19.4318 25.2537 19.4616 25.3145C18.1982 25.8616 16.8444 26.1701 15.4688 26.2241V24.8437C15.4688 24.7822 15.4567 24.7212 15.4332 24.6643C15.4096 24.6074 15.3751 24.5557 15.3316 24.5122C15.288 24.4687 15.2363 24.4341 15.1795 24.4106C15.1226 24.387 15.0616 24.3749 15 24.375ZM28.8316 17.5173C28.5223 17.0881 28.1586 16.7007 27.7497 16.365C27.5557 16.2084 27.3523 16.0638 27.1405 15.9323C27.1641 15.6237 27.1875 15.3146 27.1875 15C27.1891 11.781 25.9129 8.69293 23.6392 6.41422C23.6307 6.40415 23.6274 6.39161 23.6179 6.38212C23.6084 6.37262 23.5959 6.3693 23.5858 6.36077C21.3062 4.08844 18.2187 2.81247 15 2.81247C11.7813 2.81247 8.69389 4.08844 6.41428 6.36077C6.40421 6.36929 6.39168 6.37261 6.38218 6.38212C6.37269 6.39162 6.36937 6.40415 6.36084 6.41422C4.08851 8.69382 2.81254 11.7813 2.81254 15C2.81254 18.2187 4.08851 21.3061 6.36084 23.5857C6.36936 23.5958 6.37268 23.6083 6.38218 23.6178C6.39169 23.6273 6.40421 23.6306 6.41428 23.6392C8.11732 25.3435 10.2902 26.5007 12.6549 26.9628C15.0195 27.4249 17.4682 27.1707 19.6875 26.2329V27.6562C19.6898 27.8466 19.7154 28.0359 19.7638 28.22C16.9528 29.2311 13.8928 29.3203 11.0277 28.4747C8.16255 27.629 5.64135 25.8926 3.82982 23.5173C2.01829 21.1419 1.01064 18.2512 0.953071 15.2644C0.895498 12.2777 1.79099 9.35025 3.50963 6.90684C5.22828 4.46344 7.68069 2.63113 10.5111 1.67573C13.3415 0.720326 16.4027 0.691528 19.2506 1.59351C22.0984 2.49549 24.5849 4.28134 26.3492 6.69198C28.1135 9.10262 29.0639 12.0127 29.0625 15C29.0607 15.8443 28.9834 16.6868 28.8316 17.5173ZM23.9063 24.375C23.999 24.375 24.0896 24.3475 24.1667 24.296C24.2438 24.2445 24.3039 24.1713 24.3394 24.0856C24.3748 24 24.3841 23.9057 24.366 23.8148C24.3479 23.7238 24.3033 23.6403 24.2377 23.5748C24.1722 23.5092 24.0887 23.4646 23.9977 23.4465C23.9068 23.4284 23.8126 23.4377 23.7269 23.4732C23.6413 23.5086 23.568 23.5687 23.5165 23.6458C23.465 23.7229 23.4375 23.8135 23.4375 23.9062C23.4375 24.0305 23.4869 24.1498 23.5748 24.2377C23.6627 24.3256 23.782 24.375 23.9063 24.375ZM25.7813 26.25H25.3125V25.7812C25.3125 25.6569 25.2632 25.5377 25.1752 25.4498C25.0873 25.3619 24.9681 25.3125 24.8438 25.3125C24.7195 25.3125 24.6002 25.3619 24.5123 25.4498C24.4244 25.5377 24.375 25.6569 24.375 25.7812V26.25H23.4375V25.7812C23.4375 25.6569 23.3882 25.5377 23.3002 25.4498C23.2123 25.3619 23.0931 25.3125 22.9688 25.3125C22.8445 25.3125 22.7252 25.3619 22.6373 25.4498C22.5494 25.5377 22.5 25.6569 22.5 25.7812V26.25H22.0313C21.907 26.25 21.7877 26.2994 21.6998 26.3873C21.6119 26.4752 21.5625 26.5944 21.5625 26.7187C21.5625 26.843 21.6119 26.9623 21.6998 27.0502C21.7877 27.1381 21.907 27.1875 22.0313 27.1875H22.5V27.6562C22.5 27.7805 22.5494 27.8998 22.6373 27.9877C22.7252 28.0756 22.8445 28.125 22.9688 28.125C23.0931 28.125 23.2123 28.0756 23.3002 27.9877C23.3882 27.8998 23.4375 27.7805 23.4375 27.6562V27.1875H24.375V27.6562C24.375 27.7805 24.4244 27.8998 24.5123 27.9877C24.6002 28.0756 24.7195 28.125 24.8438 28.125C24.9681 28.125 25.0873 28.0756 25.1752 27.9877C25.2632 27.8998 25.3125 27.7805 25.3125 27.6562V27.1875H25.7813C25.9056 27.1875 26.0248 27.1381 26.1127 27.0502C26.2007 26.9623 26.25 26.843 26.25 26.7187C26.25 26.5944 26.2007 26.4752 26.1127 26.3873C26.0248 26.2994 25.9056 26.25 25.7813 26.25ZM26.25 19.2187C25.8792 19.2187 25.5167 19.3287 25.2083 19.5347C24.9 19.7407 24.6597 20.0336 24.5178 20.3762C24.3759 20.7188 24.3387 21.0958 24.4111 21.4595C24.4834 21.8232 24.662 22.1573 24.9242 22.4195C25.1864 22.6818 25.5205 22.8603 25.8842 22.9327C26.248 23.005 26.625 22.9679 26.9676 22.826C27.3102 22.6841 27.603 22.4438 27.809 22.1354C28.0151 21.8271 28.125 21.4646 28.125 21.0937C28.1244 20.5966 27.9266 20.1201 27.5751 19.7686C27.2237 19.4171 26.7471 19.2194 26.25 19.2187ZM26.25 22.0312C26.0646 22.0312 25.8834 21.9762 25.7292 21.8732C25.575 21.7702 25.4549 21.6238 25.3839 21.4525C25.3129 21.2812 25.2944 21.0927 25.3306 20.9108C25.3667 20.729 25.456 20.5619 25.5871 20.4308C25.7182 20.2997 25.8853 20.2104 26.0671 20.1742C26.249 20.1381 26.4375 20.1566 26.6088 20.2276C26.7801 20.2985 26.9265 20.4187 27.0295 20.5729C27.1326 20.727 27.1875 20.9083 27.1875 21.0937C27.1874 21.3423 27.0885 21.5807 26.9128 21.7564C26.737 21.9322 26.4986 22.0311 26.25 22.0312ZM23.4375 21.0937C23.4375 20.7229 23.3276 20.3604 23.1215 20.052C22.9155 19.7437 22.6227 19.5034 22.2801 19.3614C21.9375 19.2195 21.5605 19.1824 21.1967 19.2548C20.833 19.3271 20.4989 19.5057 20.2367 19.7679C19.9745 20.0301 19.7959 20.3642 19.7236 20.7279C19.6512 21.0916 19.6884 21.4686 19.8303 21.8113C19.9722 22.1539 20.2125 22.4467 20.5208 22.6527C20.8292 22.8588 21.1917 22.9687 21.5625 22.9687C22.0596 22.9681 22.5362 22.7703 22.8876 22.4188C23.2391 22.0673 23.4369 21.5908 23.4375 21.0937ZM20.625 21.0937C20.625 20.9083 20.68 20.727 20.783 20.5729C20.886 20.4187 21.0325 20.2985 21.2038 20.2276C21.3751 20.1566 21.5636 20.1381 21.7454 20.1742C21.9273 20.2104 22.0943 20.2997 22.2255 20.4308C22.3566 20.5619 22.4459 20.729 22.482 20.9108C22.5182 21.0927 22.4996 21.2812 22.4287 21.4525C22.3577 21.6238 22.2376 21.7702 22.0834 21.8732C21.9292 21.9762 21.748 22.0312 21.5625 22.0312C21.314 22.0311 21.0756 21.9322 20.8998 21.7564C20.724 21.5807 20.6252 21.3423 20.625 21.0937Z" fill="black"/>
</g>
<defs>
<clipPath id="clip0_129_314">
<rect width="30" height="30" fill="white"/>
</clipPath>
</defs>
</svg>
