<svg width="30" height="30" viewBox="0 0 30 30" fill="none" xmlns="http://www.w3.org/2000/svg">
<path d="M25.5469 2.8125V17.8125C24.5073 16.9773 23.2304 16.4919 21.8986 16.4255C20.5667 16.3591 19.2479 16.7152 18.1305 17.4428C17.013 18.1705 16.1539 19.2326 15.6759 20.4775C15.1979 21.7224 15.1254 23.0864 15.4688 24.375H3.98438C3.48709 24.375 3.01018 24.1775 2.65855 23.8258C2.30692 23.4742 2.10938 22.9973 2.10938 22.5V2.8125C2.10938 2.31522 2.30692 1.83831 2.65855 1.48667C3.01018 1.13504 3.48709 0.9375 3.98438 0.9375H9.84375V12.1875H17.8125V0.9375H23.6719C24.1692 0.9375 24.6461 1.13504 24.9977 1.48667C25.3493 1.83831 25.5469 2.31522 25.5469 2.8125Z" fill="#FCD8AA"/>
<path d="M9.84375 0.9375H17.8125V12.1875H9.84375V0.9375Z" fill="#FFC578"/>
<path d="M27.8906 22.7344C27.8894 24.1699 27.4001 25.5623 26.5031 26.683C25.6061 27.8038 24.3547 28.5862 22.9544 28.902C21.5541 29.2177 20.088 29.048 18.7969 28.4206C17.5057 27.7932 16.4663 26.7455 15.8491 25.4495C15.2319 24.1534 15.0737 22.6861 15.4005 21.2883C15.7273 19.8905 16.5196 18.6453 17.6474 17.7572C18.7752 16.8691 20.1714 16.3908 21.6068 16.4009C23.0423 16.4109 24.4317 16.9087 25.5469 17.8125C26.2799 18.4062 26.8708 19.1563 27.2764 20.0079C27.6819 20.8596 27.8918 21.7911 27.8906 22.7344Z" fill="#7FD73C"/>
<path d="M23.6719 0H3.98438C3.23845 0 2.52308 0.296316 1.99564 0.823762C1.46819 1.35121 1.17188 2.06658 1.17188 2.8125V22.5C1.17188 23.2459 1.46819 23.9613 1.99564 24.4887C2.52308 25.0162 3.23845 25.3125 3.98438 25.3125H14.7656C15.1543 26.3358 15.7693 27.2581 16.5646 28.0102C17.3599 28.7623 18.315 29.3249 19.3585 29.6558C20.4019 29.9867 21.5067 30.0774 22.5901 29.9212C23.6735 29.7649 24.7076 29.3657 25.615 28.7534C26.5224 28.1411 27.2796 27.3315 27.83 26.3853C28.3803 25.4391 28.7096 24.3807 28.7933 23.2892C28.8769 22.1978 28.7126 21.1015 28.3128 20.0825C27.913 19.0635 27.2879 18.1481 26.4844 17.4047V2.8125C26.4844 2.06658 26.1881 1.35121 25.6606 0.823762C25.1332 0.296316 24.4178 0 23.6719 0ZM10.7812 1.875H16.875V11.25H10.7812V1.875ZM14.3344 23.4375H3.98438C3.73573 23.4375 3.49728 23.3387 3.32146 23.1629C3.14565 22.9871 3.04688 22.7486 3.04688 22.5V2.8125C3.04688 2.56386 3.14565 2.3254 3.32146 2.14959C3.49728 1.97377 3.73573 1.875 3.98438 1.875H8.90625V12.1875C8.90625 12.4361 9.00502 12.6746 9.18084 12.8504C9.35665 13.0262 9.59511 13.125 9.84375 13.125H17.8125C18.0611 13.125 18.2996 13.0262 18.4754 12.8504C18.6512 12.6746 18.75 12.4361 18.75 12.1875V1.875H23.6719C23.9205 1.875 24.159 1.97377 24.3348 2.14959C24.5106 2.3254 24.6094 2.56386 24.6094 2.8125V16.1484C23.5053 15.633 22.2891 15.4043 21.0732 15.4834C19.8573 15.5625 18.681 15.9469 17.6531 16.601C16.6251 17.2552 15.7787 18.158 15.1921 19.2259C14.6054 20.2939 14.2976 21.4925 14.2969 22.7109C14.2966 22.9536 14.3091 23.1961 14.3344 23.4375ZM26.9531 22.7344C26.9531 23.8005 26.637 24.8428 26.0446 25.7292C25.4523 26.6157 24.6104 27.3067 23.6254 27.7147C22.6404 28.1227 21.5565 28.2294 20.5108 28.0214C19.4652 27.8134 18.5046 27.3 17.7508 26.5461C16.9969 25.7922 16.4835 24.8317 16.2755 23.786C16.0675 22.7404 16.1742 21.6565 16.5822 20.6715C16.9902 19.6865 17.6811 18.8446 18.5676 18.2522C19.4541 17.6599 20.4963 17.3438 21.5625 17.3438C22.9918 17.345 24.3622 17.9133 25.3729 18.924C26.3835 19.9347 26.9519 21.3051 26.9531 22.7344Z" fill="black"/>
<path d="M20.5219 23.9859L17.6719 21.1359L16.3453 22.4578L19.8609 25.9734C20.0359 26.1495 20.2736 26.2489 20.5219 26.25C20.6456 26.2501 20.7681 26.2257 20.8823 26.1782C20.9966 26.1308 21.1003 26.0612 21.1875 25.9734L26.3438 20.8172L25.0172 19.4953L20.5219 23.9859ZM4.45312 20.1562H6.32812V22.0312H4.45312V20.1562ZM7.26562 20.1562H9.14062V22.0312H7.26562V20.1562Z" fill="black"/>
</svg>
