<svg width="30" height="30" viewBox="0 0 30 30" fill="none" xmlns="http://www.w3.org/2000/svg">
<path d="M23.9062 16.2235L22.1016 26.9531C22.0646 27.1741 21.9498 27.3746 21.7778 27.5182C21.6058 27.6618 21.3881 27.739 21.1641 27.736H8.82187C8.59785 27.739 8.38013 27.6618 8.20816 27.5182C8.03618 27.3746 7.92132 27.1741 7.88437 26.9531L6.09375 16.2235L15 6.1969L23.9062 16.2235Z" fill="#C4C8D1" stroke="#3C3B72" stroke-width="1.4" stroke-linecap="round" stroke-linejoin="round"/>
<path d="M25.0781 17.5688L15 6.19688L4.92185 17.5688C4.84168 17.6578 4.73046 17.7128 4.61102 17.7223C4.49159 17.7319 4.37302 17.6954 4.27967 17.6203L2.72811 16.3781C2.67819 16.3383 2.63694 16.2887 2.60689 16.2323C2.57684 16.176 2.55862 16.1141 2.55335 16.0504C2.54809 15.9868 2.55588 15.9227 2.57626 15.8622C2.59664 15.8017 2.62917 15.7459 2.67185 15.6984L14.2969 2.57344C14.3848 2.47369 14.493 2.39379 14.6143 2.33907C14.7355 2.28434 14.867 2.25604 15 2.25604C15.133 2.25604 15.2645 2.28434 15.3857 2.33907C15.5069 2.39379 15.6151 2.47369 15.7031 2.57344L27.3281 15.6984C27.3708 15.7459 27.4033 15.8017 27.4237 15.8622C27.4441 15.9227 27.4519 15.9868 27.4466 16.0504C27.4413 16.1141 27.4231 16.176 27.3931 16.2323C27.363 16.2887 27.3218 16.3383 27.2719 16.3781L25.7203 17.6203C25.6269 17.6954 25.5084 17.7319 25.3889 17.7223C25.2695 17.7128 25.1583 17.6578 25.0781 17.5688Z" fill="#DEE3E7" stroke="#3C3B72" stroke-width="1.4" stroke-linecap="round" stroke-linejoin="round"/>
<path d="M15 20.6906C16.8122 20.6906 18.2812 19.2215 18.2812 17.4094C18.2812 15.5972 16.8122 14.1281 15 14.1281C13.1878 14.1281 11.7188 15.5972 11.7188 17.4094C11.7188 19.2215 13.1878 20.6906 15 20.6906Z" fill="#FFE993" stroke="#3C3B72" stroke-width="1.4" stroke-linecap="round" stroke-linejoin="round"/>
<path d="M15 24.4734C15.4867 24.4734 15.8813 24.0789 15.8813 23.5922C15.8813 23.1055 15.4867 22.7109 15 22.7109C14.5133 22.7109 14.1188 23.1055 14.1188 23.5922C14.1188 24.0789 14.5133 24.4734 15 24.4734Z" fill="#3C3B72"/>
</svg>
