<svg width="24" height="24" viewBox="0 0 24 24" fill="none" xmlns="http://www.w3.org/2000/svg">
<path d="M12 8.99998V18M7.5 13.5H16.5M9.02 2.83998L3.63 7.03998C2.73 7.73998 2 9.22998 2 10.36V17.77C2 20.09 3.89 21.99 6.21 21.99H17.79C20.11 21.99 22 20.09 22 17.78V10.5C22 9.28998 21.19 7.73998 20.2 7.04998L14.02 2.71998C12.62 1.73998 10.37 1.78998 9.02 2.83998ZM10.5 18H13.5C15.15 18 16.5 16.65 16.5 15V12C16.5 10.35 15.15 8.99998 13.5 8.99998H10.5C8.85 8.99998 7.5 10.35 7.5 12V15C7.5 16.65 8.85 18 10.5 18Z" stroke="#292D32" stroke-width="1.5" stroke-linecap="round" stroke-linejoin="round"/>
</svg>
