<svg width="30" height="30" viewBox="0 0 30 30" fill="none" xmlns="http://www.w3.org/2000/svg">
<path d="M24.375 26.25H5.625V28.125H24.375V26.25Z" fill="#43B3FF"/>
<path d="M24.375 1.875H5.625V3.75H24.375V1.875Z" fill="#43B3FF"/>
<path d="M6.5625 15.9375C7.08027 15.9375 7.5 15.5178 7.5 15C7.5 14.4822 7.08027 14.0625 6.5625 14.0625C6.04473 14.0625 5.625 14.4822 5.625 15C5.625 15.5178 6.04473 15.9375 6.5625 15.9375Z" fill="#F45151"/>
<path d="M23.4375 15.9375C23.9553 15.9375 24.375 15.5178 24.375 15C24.375 14.4822 23.9553 14.0625 23.4375 14.0625C22.9197 14.0625 22.5 14.4822 22.5 15C22.5 15.5178 22.9197 15.9375 23.4375 15.9375Z" fill="#F45151"/>
<path d="M20.625 20.625V26.25L15 20.625L9.375 26.25V20.625C9.375 17.5219 11.8969 15 15 15C16.5562 15 17.9625 15.6281 18.975 16.65C19.9969 17.6625 20.625 19.0687 20.625 20.625Z" fill="#F2F2F2"/>
<path d="M20.6062 9.82498C20.4937 11.2031 19.8937 12.4406 18.975 13.35C17.9625 14.3718 16.5562 15 15 15C11.8969 15 9.375 12.4781 9.375 9.37499V8.93434C10.5 8.52184 12.5531 8.14687 15 9.37499C17.4375 10.5937 19.4719 10.2281 20.6062 9.82498Z" fill="#FFC943"/>
<path d="M20.625 3.75V9.375C20.625 9.52497 20.6156 9.68433 20.6062 9.82498C19.4719 10.2281 17.4375 10.5937 15 9.375C12.5531 8.14688 10.5 8.52184 9.375 8.93435V3.75H20.625Z" fill="#F2F2F2"/>
<path d="M20.625 26.25H9.375L15 20.625L20.625 26.25Z" fill="#FFC943"/>
<path d="M24.375 4.21875C24.6341 4.21875 24.8438 4.00909 24.8438 3.75V1.875C24.8438 1.61591 24.6341 1.40625 24.375 1.40625H5.625C5.36591 1.40625 5.15625 1.61591 5.15625 1.875V3.75C5.15625 4.00909 5.36591 4.21875 5.625 4.21875H6.09375V13.6801C5.5493 13.8742 5.15625 14.3897 5.15625 15C5.15625 15.6103 5.5493 16.1258 6.09375 16.3199V25.7812H5.625C5.36591 25.7812 5.15625 25.9909 5.15625 26.25V28.125C5.15625 28.3841 5.36591 28.5938 5.625 28.5938H13.125C13.3841 28.5938 13.5938 28.3841 13.5938 28.125C13.5938 27.8659 13.3841 27.6562 13.125 27.6562H6.09375V26.7188H23.9062V27.6562H16.875C16.6159 27.6562 16.4062 27.8659 16.4062 28.125C16.4062 28.3841 16.6159 28.5938 16.875 28.5938H24.375C24.6341 28.5938 24.8438 28.3841 24.8438 28.125V26.25C24.8438 25.9909 24.6341 25.7812 24.375 25.7812H23.9062V16.3199C24.4507 16.1258 24.8438 15.6103 24.8438 15C24.8438 14.3897 24.4507 13.8742 23.9062 13.6801V4.21875H24.375ZM6.09375 2.34375H23.9062V3.28125H6.09375V2.34375ZM14.5312 20.4309L9.84375 25.1184V20.625C9.84375 17.9405 11.9076 15.7305 14.5312 15.4925V20.4309ZM15 21.2878L19.4934 25.7812H10.5066L15 21.2878ZM20.1562 25.1184L15.4688 20.4309V15.4925C18.0924 15.7305 20.1562 17.9405 20.1562 20.625V25.1184ZM9.84375 9.27504C10.8735 8.96124 12.6635 8.72755 14.7903 9.79431C16.106 10.4517 17.3163 10.6805 18.3636 10.6805C18.9846 10.6805 19.5408 10.5964 20.0346 10.4776C19.5277 12.792 17.464 14.5312 15 14.5312C12.1573 14.5312 9.84375 12.2177 9.84375 9.375V9.27504ZM20.1562 9.375C20.1562 9.40928 20.1518 9.44241 20.1511 9.47651C18.9744 9.83093 17.2435 9.97381 15.2106 8.95569C12.9756 7.83514 11.0551 7.98998 9.84375 8.30412V4.21875H20.1562V9.375ZM6.5625 14.5312C6.82068 14.5312 7.03125 14.7418 7.03125 15C7.03125 15.2582 6.82068 15.4688 6.5625 15.4688C6.30432 15.4688 6.09375 15.2582 6.09375 15C6.09375 14.7418 6.30432 14.5312 6.5625 14.5312ZM7.03125 16.3199C7.5757 16.1258 7.96875 15.6103 7.96875 15C7.96875 14.3897 7.5757 13.8742 7.03125 13.6801V4.21875H8.90625V9.375C8.90625 11.9061 10.4583 14.0806 12.6601 15C10.4583 15.9194 8.90625 18.0939 8.90625 20.625V25.7812H7.03125V16.3199ZM23.4375 15.4688C23.1793 15.4688 22.9688 15.2582 22.9688 15C22.9688 14.7418 23.1793 14.5312 23.4375 14.5312C23.6957 14.5312 23.9062 14.7418 23.9062 15C23.9062 15.2582 23.6957 15.4688 23.4375 15.4688ZM22.9688 13.6801C22.4243 13.8742 22.0312 14.3897 22.0312 15C22.0312 15.6103 22.4243 16.1258 22.9688 16.3199V25.7812H21.0938V20.625C21.0938 18.0939 19.5418 15.9194 17.34 15C19.5418 14.0806 21.0938 11.9061 21.0938 9.375V4.21875H22.9688V13.6801Z" fill="black"/>
<path d="M15 28.5938C15.2589 28.5938 15.4688 28.3839 15.4688 28.125C15.4688 27.8661 15.2589 27.6562 15 27.6562C14.7411 27.6562 14.5312 27.8661 14.5312 28.125C14.5312 28.3839 14.7411 28.5938 15 28.5938Z" fill="black"/>
</svg>
