<svg width="30" height="30" viewBox="0 0 30 30" fill="none" xmlns="http://www.w3.org/2000/svg">
<g clip-path="url(#clip0_108_326)">
<path d="M22.914 6.97001L18.842 2.90361C18.6532 2.71481 18.4024 2.61121 18.1352 2.61121C17.8676 2.61121 17.6164 2.71561 17.4272 2.90481C17.0376 3.29521 17.038 3.93001 17.428 4.31961L20.5088 7.39641C20.6652 7.55241 20.6652 7.80561 20.5092 7.96201L17.4324 11.0432C17.244 11.232 17.1408 11.4832 17.1408 11.7508C17.1412 12.0184 17.2452 12.2692 17.434 12.4576C17.812 12.8356 18.4712 12.8352 18.8484 12.4572L22.9152 8.38481C23.3048 7.99441 23.3044 7.36001 22.914 6.97001Z" fill="#F28C1C"/>
<path d="M22.9151 8.38481C23.3047 7.99441 23.3043 7.36001 22.9143 6.97001L18.8419 2.90361C18.6531 2.71481 18.4023 2.61121 18.1351 2.61121C17.8675 2.61121 17.6163 2.71561 17.4271 2.90481C17.4131 2.91881 17.4035 2.93481 17.3907 2.94961C17.3931 2.94961 17.3951 2.94881 17.3975 2.94881C17.7715 2.94881 18.1227 3.09401 18.3867 3.35801L22.4587 7.42441C22.7363 7.70161 22.8715 8.06761 22.8671 8.43201L22.9151 8.38481Z" fill="white"/>
<path d="M19.6608 7.67999L16.8664 10.4784C16.5272 10.8184 16.3404 11.2704 16.3408 11.7516C16.3412 12.2332 16.5288 12.6848 16.8684 13.024C17.208 13.3636 17.66 13.5508 18.1404 13.5508C18.622 13.5508 19.074 13.3632 19.4144 13.0228L23.4812 8.95038C24.1824 8.24838 24.182 7.10598 23.4796 6.40438L19.4076 2.33798C19.068 1.99838 18.616 1.81158 18.1352 1.81158C17.6536 1.81158 17.2016 1.99918 16.8612 2.33998C16.16 3.04238 16.1608 4.18438 16.8628 4.88598L19.6608 7.67999ZM17.4272 2.90478C17.6164 2.71558 17.8676 2.61118 18.1352 2.61118C18.4024 2.61118 18.6532 2.71478 18.842 2.90358L22.914 6.96998C23.3044 7.35998 23.3048 7.99438 22.9148 8.38478L18.8484 12.4572C18.4712 12.8352 17.812 12.836 17.434 12.4576C17.2452 12.2692 17.1412 12.0184 17.1408 11.7508C17.1408 11.4832 17.244 11.232 17.4324 11.0432L20.5092 7.96199C20.6652 7.80559 20.6652 7.55238 20.5088 7.39638L17.428 4.31958C17.038 3.92998 17.0376 3.29518 17.4272 2.90478Z" fill="black"/>
<path d="M24.9756 19.3972C24.8328 19.1436 24.5884 18.9596 24.306 18.892C23.7884 18.7684 23.2392 19.0784 23.074 19.5912C21.9732 23.008 18.8196 25.3036 15.2272 25.3036H15.2264C14.2716 25.3036 13.3236 25.1368 12.408 24.8076C8.8156 23.5164 6.5576 19.8304 7.0396 16.042C7.556 11.9832 11.0192 8.87318 15.0952 8.80718C15.558 8.79998 15.962 8.47878 16.078 8.02558C16.1584 7.71198 16.0908 7.38598 15.8928 7.13038C15.6888 6.86758 15.3832 6.72278 15.0316 6.72278C10.108 6.80998 5.9064 10.408 5.0476 15.2792C4.146 20.3972 7.2116 25.4052 12.1792 26.928C13.178 27.234 14.2056 27.3888 15.2336 27.3888H15.2344C19.7364 27.3884 23.6852 24.5084 25.06 20.222C25.148 19.9492 25.1172 19.6484 24.9756 19.3972Z" fill="#F28C1C"/>
<path d="M25.6724 19.0044C25.4204 18.5576 24.99 18.2328 24.4912 18.114C24.352 18.0808 24.2088 18.064 24.0656 18.064C23.2644 18.064 22.5596 18.5792 22.3124 19.346C21.3184 22.4312 18.4708 24.504 15.2268 24.504H15.226C14.3636 24.504 13.5064 24.3532 12.678 24.0552C9.43519 22.89 7.39759 19.5624 7.83239 16.1432C8.29879 12.4764 11.4264 9.66678 15.1072 9.60758C15.9292 9.59438 16.6468 9.02598 16.8524 8.22478C16.9944 7.66998 16.8752 7.09238 16.5244 6.64038C16.1656 6.17798 15.6352 5.92358 15.024 5.92358C9.71199 6.01638 5.18479 9.89278 4.25959 15.1404C3.28799 20.6552 6.59199 26.0516 11.9448 27.6924C13.02 28.0216 14.1264 28.1884 15.2336 28.1884H15.2344C20.0856 28.188 24.3404 25.0848 25.8216 20.4664C25.9776 19.9828 25.9232 19.4496 25.6724 19.0044ZM25.06 20.222C23.6848 24.5084 19.7364 27.3884 15.2344 27.3888H15.2336C14.206 27.3888 13.178 27.2336 12.1792 26.928C7.21199 25.4052 4.14599 20.3972 5.04759 15.2792C5.90639 10.408 10.108 6.80998 15.0312 6.72358C15.3828 6.72358 15.6888 6.86838 15.8924 7.13118C16.0904 7.38678 16.158 7.71278 16.0776 8.02638C15.9616 8.47918 15.5576 8.80078 15.0948 8.80798C11.0188 8.87398 7.55559 11.984 7.03919 16.0428C6.55719 19.8308 8.81519 23.5172 12.4076 24.8084C13.3232 25.1376 14.2716 25.3044 15.226 25.3044H15.2268C18.8192 25.3044 21.9728 23.0088 23.0736 19.592C23.2388 19.0792 23.7876 18.7692 24.3056 18.8928C24.5884 18.96 24.8324 19.1444 24.9752 19.398C25.1172 19.6484 25.148 19.9492 25.06 20.222Z" fill="black"/>
</g>
<defs>
<clipPath id="clip0_108_326">
<rect width="30" height="30" fill="white"/>
</clipPath>
</defs>
</svg>
